<?xml version="1.0" encoding="utf-8"?>
<!-- Generator: Adobe Illustrator 23.0.3, SVG Export Plug-In . SVG Version: 6.00 Build 0)  -->
<svg version="1.1" id="Layer_1" xmlns="http://www.w3.org/2000/svg" xmlns:xlink="http://www.w3.org/1999/xlink" x="0px" y="0px"
	 viewBox="0 0 640 480" style="enable-background:new 0 0 640 480;" xml:space="preserve">
<style type="text/css">
	.st0{fill:#009933;stroke:#DCDCDC;stroke-width:10;stroke-miterlimit:10;}
</style>
<path class="st0" d="M274,112c4.57,0.39,4.85,4.24,12,7c2.59,1,8.13,3.14,13,1c4.55-2,6.38-6.81,9-14c4.28-11.74,1.92-14.3,5-18
	c4.13-4.96,10.71-3.18,31-3c24.3,0.22,24.33-2.24,35,0c3.09,0.65,15.17,3.39,28,12c9.66,6.48,8.84,8.97,23,21
	c14.37,12.2,15.85,10.19,23,18c11.1,12.13,15.33,25.53,17,31c3.6,11.82,1.98,15.58,5,31c3.6,18.38,6.68,17.25,9,30
	c4.53,24.89-6.73,27.41-2.5,53.5c0.94,5.79,3.2,16.18,3,31c-0.14,10.15-1.3,13-3,15c-5.86,6.89-17.21,2.5-33,2
	c-29.56-0.93-31.14,13.17-66,14c-12.5,0.3-16.69-1.41-32,0c-12.18,1.12-29,4-29,4h0c-4.68,11.91-6,12-6,12c-2.9,0.2-3.2-9.18-11-19
	c-0.86-1.09-5.48-6.79-13-11c-7.86-4.4-11.84-3.22-24-6c-10.97-2.51-19.96-4.56-28-11c-7.68-6.15-11.12-13.6-15-22
	c-7.62-16.5-3.57-20.51-11-31c-4.84-6.83-6.89-5.6-16-17c-7.73-9.67-9.33-14.41-10-18c-0.68-3.64-2.09-11.23,2-16
	c5.65-6.58,15.22-0.14,24-6c10.95-7.31-2.13-17.06-3.5-17.5c-0.97-0.31,7.74-2.22,9.5-0.5c2.26,2.22,17.77-4.63,21-16
	c2.37-8.35-3.65-12.94,0-21c2.13-4.71,4.42-3.66,10-11c5.37-7.06,4.08-9.11,9-15C262.52,117.89,267.88,111.48,274,112z"/>
</svg>
