<?xml version="1.0" encoding="utf-8"?>
<!-- Generator: Adobe Illustrator 23.0.1, SVG Export Plug-In . SVG Version: 6.00 Build 0)  -->
<svg version="1.1" id="Layer_1" xmlns="http://www.w3.org/2000/svg" xmlns:xlink="http://www.w3.org/1999/xlink" x="0px" y="0px"
	 viewBox="0 0 640 480" style="enable-background:new 0 0 640 480;" xml:space="preserve">
<style type="text/css">
	.st0{fill:#4169E1;stroke:#DCDCDC;stroke-width:10;stroke-miterlimit:10;}
</style>
<path class="st0" d="M274,112c4.6,0.4,4.9,4.2,12,7c2.6,1,8.1,3.1,13,1c4.5-2,6.4-6.8,9-14c4.3-11.7,1.9-14.3,5-18
	c4.1-5,10.7-3.2,31-3c24.3,0.2,24.3-2.2,35,0c3.1,0.7,15.2,3.4,28,12c9.7,6.5,8.8,9,23,21c14.4,12.2,15.9,10.2,23,18
	c11.1,12.1,15.3,25.5,17,31c3.6,11.8,2,15.6,5,31c3.6,18.4,6.7,17.3,9,30c4.5,24.9-6.7,27.4-2.5,53.5c0.9,5.8,3.2,16.2,3,31
	c-0.1,10.1-1.3,13-3,15c-5.9,6.9-17.2,2.5-33,2c-29.6-0.9-31.1,13.2-66,14c-12.5,0.3-16.7-1.4-32,0c-12.2,1.1-29,4-29,4l0,0
	c-4.7,11.9-6,12-6,12c-2.9,0.2-3.2-9.2-11-19c-0.9-1.1-5.5-6.8-13-11c-7.9-4.4-11.8-3.2-24-6c-11-2.5-20-4.6-28-11
	c-7.7-6.1-11.1-13.6-15-22c-7.6-16.5-3.6-20.5-11-31c-4.8-6.8-6.9-5.6-16-17c-7.7-9.7-9.3-14.4-10-18c-0.7-3.6-2.1-11.2,2-16
	c5.6-6.6,15.2-0.1,24-6c10.9-7.3-2.1-17.1-3.5-17.5c-1-0.3,7.7-2.2,9.5-0.5c2.3,2.2,17.8-4.6,21-16c2.4-8.4-3.6-12.9,0-21
	c2.1-4.7,4.4-3.7,10-11c5.4-7.1,4.1-9.1,9-15C262.5,117.9,267.9,111.5,274,112z"/>
</svg>
