<?xml version="1.0" encoding="utf-8"?>
<!-- Generator: Adobe Illustrator 21.1.0, SVG Export Plug-In . SVG Version: 6.00 Build 0)  -->
<svg version="1.1" id="Layer_1" xmlns="http://www.w3.org/2000/svg" xmlns:xlink="http://www.w3.org/1999/xlink" x="0px" y="0px"
	 viewBox="0 0 640 480" style="enable-background:new 0 0 640 480;" xml:space="preserve">
<style type="text/css">
	.st0{fill:#22B673;stroke:#DCDCDC;stroke-width:20;stroke-miterlimit:10;}
</style>
<path class="st0" d="M282.7,116.9c5,0.5,5.3,5,13.2,8.2c2.9,1.2,9,3.7,14.3,1.2c5-2.4,7-8,9.9-16.5c4.7-13.8,2.1-16.8,5.5-21.2
	c4.5-5.8,11.8-3.7,34.1-3.5c26.7,0.3,26.8-2.6,38.5,0c3.4,0.8,16.7,4,30.8,14.1c10.6,7.6,9.7,10.5,25.3,24.7
	c15.8,14.4,17.4,12,25.3,21.2c12.2,14.3,16.9,30,18.7,36.5c4,13.9,2.2,18.3,5.5,36.5c4,21.6,7.3,20.3,9.9,35.3
	c5,29.3-7.4,32.2-2.8,62.9c1,6.8,3.5,19,3.3,36.5c-0.2,11.9-1.4,15.3-3.3,17.6c-6.4,8.1-18.9,2.9-36.3,2.4
	c-32.5-1.1-34.3,15.5-72.6,16.5c-13.8,0.3-18.4-1.7-35.2,0c-13.4,1.3-31.9,4.7-31.9,4.7h0c-5.2,14-6.6,14.1-6.6,14.1
	c-3.2,0.2-3.5-10.8-12.1-22.3c-0.9-1.3-6-8-14.3-12.9c-8.7-5.2-13-3.8-26.4-7.1c-12.1-2.9-22-5.4-30.8-12.9
	c-8.4-7.2-12.2-16-16.5-25.9c-8.4-19.4-3.9-24.1-12.1-36.5c-5.3-8-7.6-6.6-17.6-20c-8.5-11.4-10.3-16.9-11-21.2
	c-0.7-4.3-2.3-13.2,2.2-18.8c6.2-7.7,16.7-0.2,26.4-7.1c12.1-8.6-2.3-20.1-3.9-20.6c-1.1-0.4,8.5-2.6,10.5-0.6
	c2.5,2.6,19.6-5.4,23.1-18.8c2.6-9.8-4-15.2,0-24.7c2.3-5.5,4.9-4.3,11-12.9c5.9-8.3,4.5-10.7,9.9-17.6
	C270.1,123.8,276,116.3,282.7,116.9z"/>
</svg>
